<svg width="42" height="40" viewBox="0 0 42 40" fill="none" xmlns="http://www.w3.org/2000/svg" xmlns:xlink="http://www.w3.org/1999/xlink">
<path d="M15.914,4.415L17.328,3.001L14.5,0.173L13.086,1.587L15.914,4.415ZM2,15.501L0.586,14.087C-0.195,14.868 -0.195,16.134 0.586,16.915L2,15.501ZM13.086,29.415L14.5,30.829L17.328,28.001L15.914,26.587L13.086,29.415ZM13.086,1.587L0.586,14.087L3.414,16.915L15.914,4.415L13.086,1.587ZM0.586,16.915L13.086,29.415L15.914,26.587L3.414,14.087L0.586,16.915Z" transform="rotate(0 8.25 15.501)" fill="#FFFFFF"/>
<line x1="4" y1="13.5" x2="21.5" y2="13.5" stroke="#FFFFFF" stroke-width="2" stroke-miterlimit="3.999327" stroke-linecap="square"/>
<path d="M21.5,36L19.5,36L19.5,40L21.5,40L21.5,36ZM21.5,13.5L19.5,13.5L19.5,17.5L21.5,17.5L21.5,13.5ZM27.75,36L21.5,36L21.5,40L27.75,40L27.75,36ZM21.5,17.5L27.75,17.5L27.75,13.5L21.5,13.5L21.5,17.5ZM37,26.75C37,31.859 32.859,36 27.75,36L27.75,40C35.068,40 41,34.068 41,26.75L37,26.75ZM41,26.75C41,19.432 35.068,13.5 27.75,13.5L27.75,17.5C32.859,17.5 37,21.641 37,26.75L41,26.75Z" transform="rotate(0 30.25 26.75)" fill="#FFFFFF"/>
</svg>
