<svg width="36" height="36" viewBox="0 0 36 36" fill="none" xmlns="http://www.w3.org/2000/svg" xmlns:xlink="http://www.w3.org/1999/xlink">
<path d="M33.271,14.576L32,16.12L33.271,14.576ZM2.729,14.576L1.457,13.033L2.729,14.576ZM15.457,1.503L1.457,13.033L4,16.12L18,4.591L15.457,1.503ZM0,16.12L0,32L4,32L4,16.12L0,16.12ZM4,36L14,36L14,32L4,32L4,36ZM14,36L22,36L22,32L14,32L14,36ZM22,36L32,36L32,32L22,32L22,36ZM36,32L36,16.12L32,16.12L32,32L36,32ZM34.543,13.033L20.543,1.503L18,4.591L32,16.12L34.543,13.033ZM0,32C0,34.209 1.791,36 4,36L4,32L4,32L0,32ZM36,16.12C36,14.925 35.465,13.792 34.543,13.033L32,16.12L32,16.12L36,16.12ZM1.457,13.033C0.535,13.792 0,14.925 0,16.12L4,16.12L4,16.12L1.457,13.033ZM32,36C34.209,36 36,34.209 36,32L32,32L32,32L32,36ZM18,4.591L18,4.591L20.543,1.503C19.066,0.287 16.934,0.287 15.457,1.503L18,4.591Z" fill="#FFFFFF"/>
</svg>
