<svg width="22" height="38" viewBox="0 0 22 38" fill="none" xmlns="http://www.w3.org/2000/svg" xmlns:xlink="http://www.w3.org/1999/xlink">
<path d="M3.619,0.381C2.725,-0.514 1.275,-0.514 0.381,0.381C-0.514,1.275 -0.514,2.725 0.381,3.619L3.619,0.381ZM18,18L19.619,19.619C20.514,18.725 20.514,17.275 19.619,16.381L18,18ZM0.381,32.381C-0.514,33.275 -0.514,34.725 0.381,35.619C1.275,36.514 2.725,36.514 3.619,35.619L0.381,32.381ZM0.381,3.619L16.381,19.619L19.619,16.381L3.619,0.381L0.381,3.619ZM16.381,16.381L0.381,32.381L3.619,35.619L19.619,19.619L16.381,16.381Z" fill="#FFFFFF"/>
</svg>
